<svg width="27" height="27" viewBox="0 0 27 27" fill="none" xmlns="http://www.w3.org/2000/svg">
  <path d="M10.0905 25.2393C10.718 25.2393 11.2268 24.7246 11.2268 24.0896C11.2268 23.4547 10.718 22.9399 10.0905 22.9399C9.46286 22.9399 8.9541 23.4547 8.9541 24.0896C8.9541 24.7246 9.46286 25.2393 10.0905 25.2393Z" stroke="white" stroke-width="1.6" stroke-linecap="round" stroke-linejoin="round"/>
  <path d="M22.5905 25.2393C23.2181 25.2393 23.7268 24.7246 23.7268 24.0896C23.7268 23.4547 23.2181 22.9399 22.5905 22.9399C21.9629 22.9399 21.4541 23.4547 21.4541 24.0896C21.4541 24.7246 21.9629 25.2393 22.5905 25.2393Z" stroke="white" stroke-width="1.6" stroke-linecap="round" stroke-linejoin="round"/>
  <path d="M1 1.0957H5.54545L8.59091 16.4901C8.69482 17.0194 8.97944 17.4949 9.39494 17.8333C9.81044 18.1717 10.3303 18.3515 10.8636 18.3411H21.9091C22.4424 18.3515 22.9623 18.1717 23.3778 17.8333C23.7933 17.4949 24.0779 17.0194 24.1818 16.4901L26 6.84418H6.68182" stroke="white" stroke-width="1.6" stroke-linecap="round" stroke-linejoin="round"/>
</svg>
