<svg width="27" height="26" viewBox="0 0 27 26" fill="none" xmlns="http://www.w3.org/2000/svg">
  <path d="M10.091 25.0001C10.7185 25.0001 11.2273 24.4884 11.2273 23.8572C11.2273 23.226 10.7185 22.7144 10.091 22.7144C9.46336 22.7144 8.95459 23.226 8.95459 23.8572C8.95459 24.4884 9.46336 25.0001 10.091 25.0001Z" stroke="black" stroke-width="1.6" stroke-linecap="round" stroke-linejoin="round"/>
  <path d="M22.591 25.0001C23.2185 25.0001 23.7273 24.4884 23.7273 23.8572C23.7273 23.226 23.2185 22.7144 22.591 22.7144C21.9634 22.7144 21.4546 23.226 21.4546 23.8572C21.4546 24.4884 21.9634 25.0001 22.591 25.0001Z" stroke="black" stroke-width="1.6" stroke-linecap="round" stroke-linejoin="round"/>
  <path d="M1 1H5.54545L8.59091 16.3029C8.69482 16.829 8.97944 17.3017 9.39494 17.6381C9.81044 17.9744 10.3303 18.1531 10.8636 18.1429H21.9091C22.4424 18.1531 22.9623 17.9744 23.3778 17.6381C23.7933 17.3017 24.0779 16.829 24.1818 16.3029L26 6.71429H6.68182" stroke="black" stroke-width="1.6" stroke-linecap="round" stroke-linejoin="round"/>
</svg>
