<svg width="22" height="18" viewBox="0 0 22 18" fill="none" xmlns="http://www.w3.org/2000/svg">
<path d="M19.0349 2.27478C18.5707 1.83101 18.0195 1.47898 17.4128 1.2388C16.8061 0.998621 16.1558 0.875 15.4991 0.875C14.8424 0.875 14.1921 0.998621 13.5854 1.2388C12.9787 1.47898 12.4275 1.83101 11.9633 2.27478L10.9998 3.19533L10.0363 2.27478C9.0985 1.37881 7.82662 0.875464 6.50043 0.875464C5.17423 0.875464 3.90235 1.37881 2.96459 2.27478C2.02683 3.17075 1.5 4.38594 1.5 5.65303C1.5 6.92012 2.02683 8.13531 2.96459 9.03128L3.92808 9.95183L10.9998 16.7083L18.0714 9.95183L19.0349 9.03128C19.4994 8.58772 19.8678 8.06107 20.1192 7.48142C20.3706 6.90177 20.5 6.28047 20.5 5.65303C20.5 5.02559 20.3706 4.4043 20.1192 3.82465C19.8678 3.245 19.4994 2.71834 19.0349 2.27478V2.27478Z" stroke="black" stroke-width="1.5" stroke-linecap="round" stroke-linejoin="round"/>
</svg>
