<svg width="123" height="24" viewBox="0 0 123 24" fill="none" xmlns="http://www.w3.org/2000/svg">
<path d="M29.6034 4C31.1151 4 32.4268 4.18359 33.5384 4.55078C34.65 4.91797 35.5023 5.41734 36.0951 6.04891C36.688 6.68047 36.9844 7.37813 36.9844 8.14188V8.69266H33.0493C33.0493 8.23735 32.7751 7.86281 32.2267 7.56906C31.6932 7.26063 30.9151 7.10641 29.8924 7.10641C28.9438 7.10641 28.2176 7.29 27.7136 7.65719C27.2245 8.00969 26.98 8.44297 26.98 8.95703C26.98 9.41235 27.1282 9.7575 27.4246 9.9925C27.7359 10.2275 28.1138 10.345 28.5585 10.345H30.8706V13.0548H28.0693C27.6099 13.0548 27.2319 13.1944 26.9355 13.4734C26.6539 13.7378 26.5131 14.127 26.5131 14.6411C26.5131 15.2433 26.7651 15.7206 27.269 16.0731C27.7877 16.4109 28.6029 16.5798 29.7145 16.5798C31.9377 16.5798 33.0493 15.9263 33.0493 14.6191V10.345H41V13.0548H37.0289V14.5309C37.0289 16.1759 36.436 17.4464 35.2503 18.3424C34.0794 19.2383 32.2416 19.6863 29.7368 19.6863C27.1578 19.6863 25.2236 19.275 23.9342 18.4525C22.6447 17.63 22 16.5431 22 15.1919C22 14.3106 22.2297 13.5542 22.6892 12.9227C23.1635 12.2764 23.823 11.8211 24.6678 11.5567V11.4686C24.0305 11.2336 23.497 10.8297 23.0671 10.2569C22.6521 9.68407 22.4446 9.04516 22.4446 8.34016C22.4446 7.54703 22.7114 6.82 23.245 6.15906C23.7934 5.49813 24.6086 4.97672 25.6905 4.59484C26.7725 4.19828 28.0768 4 29.6034 4Z" fill="white"/>
<path d="M14.6869 19.6078L13.8756 16.8433H7.13364L6.32236 19.6078H0L7.02174 0H14.2113L21.2331 19.6078H14.6869ZM8.42049 12.4544H12.5888L10.5746 5.47195H10.4627L8.42049 12.4544Z" fill="white"/>
<path d="M55.2371 0C56.2069 0 57.0928 0.208998 57.8948 0.626994C58.7154 1.02599 59.3588 1.59598 59.8251 2.33698C60.31 3.07797 60.5524 3.90446 60.5524 4.81645C60.5524 7.22943 59.48 8.74942 57.3353 9.37641V9.49041C59.7784 10.0604 61 11.6944 61 14.3924C61 15.4184 60.7482 16.3304 60.2447 17.1283C59.7598 17.9073 59.0884 18.5153 58.2305 18.9523C57.3726 19.3893 56.4307 19.6078 55.405 19.6078H42.4246V0H55.2371ZM48.6071 7.63793H52.8593C53.2696 7.63793 53.6053 7.49543 53.8664 7.21043C54.1461 6.90644 54.286 6.53594 54.286 6.09894V5.81395C54.286 5.39595 54.1461 5.04445 53.8664 4.75946C53.5866 4.45546 53.2509 4.30346 52.8593 4.30346H48.6071V7.63793ZM48.6071 15.0479H53.3069C53.7172 15.0479 54.0529 14.9054 54.314 14.6204C54.5937 14.3164 54.7336 13.9459 54.7336 13.5089V13.2239C54.7336 12.7869 54.5937 12.4259 54.314 12.1409C54.0529 11.8369 53.7172 11.6849 53.3069 11.6849H48.6071V15.0479Z" fill="white"/>
<path d="M74.2299 19.5637C71.1717 19.5637 68.8688 18.7555 67.3213 17.1389C65.7738 15.504 65 13.0517 65 9.78186C65 6.51206 65.7738 4.06889 67.3213 2.45235C68.8688 0.817451 71.1717 0 74.2299 0C76.6986 0 78.6699 0.615384 80.1437 1.84615C81.636 3.05855 82.3821 4.83123 82.3821 7.16418H79.7015C79.7015 5.54765 79.2133 4.32606 78.2369 3.49943C77.2789 2.65442 75.9433 2.23192 74.2299 2.23192C72.0007 2.23192 70.3611 2.81975 69.311 3.99541C68.2609 5.17107 67.7266 7.08152 67.7082 9.72675V9.78186C67.7082 12.4455 68.2332 14.3743 69.2833 15.5683C70.3335 16.744 71.9823 17.3318 74.2299 17.3318C75.9801 17.3318 77.3434 16.9185 78.3198 16.0919C79.3147 15.2652 79.8121 14.0528 79.8121 12.4547H82.3821C82.3821 14.806 81.6452 16.5786 80.1713 17.7727C78.6975 18.9667 76.717 19.5637 74.2299 19.5637Z" fill="white"/>
<path d="M91.3268 19.5637C89.0976 19.5637 87.4211 18.9483 86.2973 17.7176C85.1735 16.4684 84.6116 14.558 84.6116 11.9862C84.6116 9.41447 85.1735 7.5132 86.2973 6.28243C87.4211 5.0333 89.0976 4.40873 91.3268 4.40873C93.556 4.40873 95.2325 5.0333 96.3563 6.28243C97.4801 7.5132 98.042 9.41447 98.042 11.9862C98.042 14.558 97.4801 16.4684 96.3563 17.7176C95.2325 18.9483 93.556 19.5637 91.3268 19.5637ZM91.3268 17.5522C92.8007 17.5522 93.8692 17.1297 94.5324 16.2847C95.1957 15.4214 95.5273 14.0253 95.5273 12.0964V11.876C95.5273 9.94719 95.1957 8.56028 94.5324 7.71527C93.8692 6.85189 92.8007 6.42021 91.3268 6.42021C89.853 6.42021 88.7844 6.85189 88.1212 7.71527C87.458 8.56028 87.1264 9.94719 87.1264 11.876V12.0964C87.1264 14.0253 87.458 15.4214 88.1212 16.2847C88.7844 17.1297 89.853 17.5522 91.3268 17.5522Z" fill="white"/>
<path d="M100.851 4.73938H102.703L102.979 6.91619H103.145C103.421 6.19977 103.836 5.60276 104.389 5.12514C104.941 4.64753 105.669 4.40873 106.572 4.40873C107.069 4.40873 107.502 4.4822 107.871 4.62916V6.9713H106.848C105.816 6.9713 104.96 7.2744 104.278 7.8806C103.615 8.46843 103.283 9.3961 103.283 10.6636V19.2331H100.851V4.73938Z" fill="white"/>
<path d="M110.054 4.73938H111.878L112.182 6.69575H112.348C112.827 5.9426 113.453 5.37313 114.227 4.98737C115.019 4.60161 115.894 4.40873 116.852 4.40873C118.694 4.40873 120.113 5.02411 121.108 6.25488C122.103 7.48565 122.6 9.3961 122.6 11.9862C122.6 14.5212 122.103 16.4225 121.108 17.69C120.131 18.9392 118.786 19.5637 117.073 19.5637C116.041 19.5637 115.166 19.4076 114.448 19.0953C113.729 18.783 113.131 18.2778 112.652 17.5798H112.486V24H110.054V4.73938ZM116.244 17.5522C117.184 17.5522 117.93 17.3777 118.482 17.0287C119.035 16.6797 119.44 16.1102 119.698 15.3203C119.956 14.5304 120.085 13.4558 120.085 12.0964V11.9862C120.085 10.6085 119.956 9.5155 119.698 8.70723C119.44 7.89897 119.026 7.32032 118.455 6.9713C117.902 6.6039 117.165 6.42021 116.244 6.42021C114.954 6.42021 114.006 6.88863 113.398 7.82549C112.79 8.76234 112.486 10.1493 112.486 11.9862V12.0964C112.486 13.8967 112.781 15.256 113.37 16.1745C113.978 17.093 114.936 17.5522 116.244 17.5522Z" fill="white"/>
</svg>
