<svg width="22" height="20" viewBox="0 0 22 20" fill="none" xmlns="http://www.w3.org/2000/svg">
<path fill-rule="evenodd" clip-rule="evenodd" d="M12.0087 0C11.8049 9.98929e-06 11.6094 0.0810563 11.4653 0.225313C11.3212 0.369569 11.2402 0.565221 11.2402 0.76923C11.2414 0.801455 11.2446 0.833571 11.2499 0.865384C11.2446 0.897197 11.2414 0.929314 11.2402 0.961539V2.5C11.2405 2.70381 11.3216 2.89917 11.4657 3.04317C11.6098 3.18718 11.8051 3.26806 12.0087 3.26806C12.2124 3.26806 12.4077 3.18718 12.5518 3.04317C12.6959 2.89917 12.777 2.70381 12.7773 2.5V1.57499C14.8776 1.76652 16.8304 2.73697 18.2524 4.29579C19.6744 5.85461 20.4629 7.88918 20.4629 10C20.4629 12.1108 19.6744 14.1454 18.2524 15.7042C16.8304 17.263 14.8776 18.2335 12.7773 18.425V17.5C12.777 17.2962 12.6959 17.1008 12.5518 16.9568C12.4077 16.8128 12.2124 16.7319 12.0087 16.7319C11.8051 16.7319 11.6098 16.8128 11.4657 16.9568C11.3216 17.1008 11.2405 17.2962 11.2402 17.5V19.0385C11.2531 19.1019 11.2531 19.1673 11.2402 19.2308C11.2402 19.4348 11.3212 19.6304 11.4653 19.7747C11.6094 19.9189 11.8049 20 12.0087 20C14.6586 20 17.1999 18.9464 19.0736 17.0711C20.9474 15.1957 22 12.6522 22 10C22 7.34784 20.9474 4.8043 19.0736 2.92893C17.1999 1.05357 14.6586 0 12.0087 0ZM8.37984 9.99999C8.37983 9.79598 8.29885 9.60033 8.15472 9.45607C8.01059 9.31181 7.81511 9.23076 7.61128 9.23075H0.768559C0.564724 9.23075 0.369239 9.3118 0.225106 9.45606C0.0809737 9.60032 0 9.79597 0 9.99999C0 10.204 0.0809737 10.3997 0.225106 10.5439C0.369239 10.6882 0.564724 10.7692 0.768559 10.7692H7.61128C7.81511 10.7692 8.01059 10.6882 8.15472 10.5439C8.29885 10.3996 8.37983 10.204 8.37984 9.99999ZM2.62794 4.42307H7.68549C7.88912 4.42338 8.08431 4.50456 8.22819 4.64878C8.37207 4.79301 8.45288 4.98849 8.45288 5.1923C8.45288 5.39611 8.37207 5.59158 8.22819 5.73581C8.08431 5.88003 7.88912 5.96122 7.68549 5.96153H2.62794C2.42431 5.96122 2.22913 5.88003 2.08525 5.73581C1.94137 5.59158 1.86056 5.39611 1.86056 5.1923C1.86056 4.98849 1.94137 4.79301 2.08525 4.64878C2.22913 4.50456 2.42431 4.42338 2.62794 4.42307ZM7.68549 14.0384H2.62794C2.42431 14.0387 2.22913 14.1199 2.08525 14.2641C1.94137 14.4084 1.86056 14.6038 1.86056 14.8077C1.86056 15.0115 1.94137 15.2069 2.08525 15.3512C2.22913 15.4954 2.42431 15.5766 2.62794 15.5769H7.68549C7.88912 15.5766 8.08431 15.4954 8.22819 15.3512C8.37207 15.2069 8.45288 15.0115 8.45288 14.8077C8.45288 14.6038 8.37207 14.4084 8.22819 14.2641C8.08431 14.1199 7.88912 14.0387 7.68549 14.0384ZM17.4717 7.02836L12.608 11.1475C12.4676 11.2663 12.3053 11.3563 12.1302 11.4124C11.9551 11.4684 11.7708 11.4894 11.5876 11.4741C11.4044 11.4589 11.226 11.4076 11.0626 11.3234C10.8992 11.2391 10.754 11.1234 10.6353 10.983C10.5165 10.8425 10.4266 10.68 10.3706 10.5048C10.3146 10.3296 10.2936 10.145 10.3089 9.96168C10.3241 9.77834 10.3753 9.5998 10.4595 9.43626C10.5437 9.27271 10.6593 9.12737 10.7996 9.00853C10.8699 8.94969 10.9455 8.89747 11.0254 8.85254L16.5985 5.76219C16.7662 5.66919 16.9625 5.64195 17.1492 5.68577C17.3358 5.72958 17.4995 5.84132 17.6084 5.99924C17.7173 6.15717 17.7636 6.34999 17.7384 6.5402C17.7131 6.73041 17.618 6.90441 17.4717 7.02836ZM11.0482 10.0116C11.0505 10.1637 11.0978 10.3118 11.1842 10.437C11.3 10.6049 11.4776 10.7199 11.6781 10.7566C11.8786 10.7934 12.0855 10.749 12.2533 10.6331C12.3784 10.5467 12.4751 10.4251 12.5311 10.2837C12.5872 10.1422 12.6001 9.98735 12.5682 9.8386C12.5363 9.68984 12.461 9.55389 12.3519 9.44795C12.2428 9.342 12.1048 9.27081 11.9553 9.24338C11.8057 9.21595 11.6515 9.23351 11.5119 9.29385C11.3724 9.35418 11.2538 9.45457 11.1713 9.58233C11.0888 9.71009 11.0459 9.85948 11.0482 10.0116Z" fill="#214D8E"/>
</svg>
